# xmcd CD database file
#
# Track frame offsets:
#	150
#	15952
#	35250
#	55575
#	76838
#	94463
#	111746
#	124950
#	141696
#	155985
#
# Disc length: 2431 seconds
#
# Revision: 0
# Processed by: cddbd v1.5.2PL0 Copyright (c) Steve Scherf et al.
# Submitted via: CDex 1.51
#
DISCID=8b097d0a
DTITLE=Moving Mountains - Waves
DYEAR=2010
DGENRE=New Age
TTITLE0=My Life Is Like A Chase Dream
TTITLE1=Where Two Bodies Lie
TTITLE2=Tired Tiger
TTITLE3=The Cascade
TTITLE4=Once Rendering
TTITLE5=Always Only For Me
TTITLE6=Alleviate
TTITLE7=Parts In Different Places
TTITLE8=Furnace Woods
TTITLE9=Full Circle
EXTD=YEAR: 2010
EXTT0=
EXTT1=
EXTT2=
EXTT3=
EXTT4=
EXTT5=
EXTT6=
EXTT7=
EXTT8=
EXTT9=
PLAYORDER=
